<?xml version="1.0" encoding="utf-8"?>
<!-- Generator: Adobe Illustrator 20.0.0, SVG Export Plug-In . SVG Version: 6.00 Build 0)  -->
<svg version="1.1" id="Livello_1" xmlns="http://www.w3.org/2000/svg" xmlns:xlink="http://www.w3.org/1999/xlink" x="0px" y="0px"
	 viewBox="0 0 284 121" style="enable-background:new 0 0 284 121;" xml:space="preserve">
<style type="text/css">
	.st0{fill:none;stroke:#F7567C;stroke-width:8;stroke-miterlimit:10;}
	.st1{fill:#D21625;}
	.st2{font-family:'CourierNewPSMT';}
	.st3{font-size:48px;}
	.st4{fill:none;stroke:#F7567C;stroke-width:3;stroke-miterlimit:10;}
	.st5{display:none;fill:none;stroke:#407CDB;stroke-width:2;stroke-miterlimit:10;}
	.st6{display:none;}
	.st7{display:inline;}
	.st8{fill:none;stroke:#F7567C;stroke-width:7;stroke-miterlimit:10;}
</style>
<g>
	<g>
		<line class="st0" x1="7.8" y1="6.1" x2="7.8" y2="117.3"/>
		<circle class="st0" cx="43.5" cy="79.4" r="34.9"/>
	</g>
	<circle class="st0" cx="106.3" cy="84.4" r="26.6"/>
	<circle class="st0" cx="155.7" cy="89.4" r="20.9"/>
	<line class="st0" x1="183.3" y1="6.1" x2="183.3" y2="117.3"/>
</g>
<text transform="matrix(1 0 0 1 197.7053 114.081)" class="st1 st2 st3">bnb</text>
<text transform="matrix(1 0 0 1 197.7053 114.081)" class="st4 st2 st3">bnb</text>
<g class="st6">
	<g class="st7">
		<line class="st8" x1="199.3" y1="60.5" x2="199.3" y2="117.3"/>
		<circle class="st8" cx="215.1" cy="98.4" r="15.3"/>
	</g>
	<g class="st7">
		<line class="st8" x1="234.1" y1="80.4" x2="234.1" y2="117.5"/>
		<path class="st8" d="M234.2,100.4c0-8.8,6.5-15.9,15.3-15.9s15.9,7.1,15.9,15.9l0.1,17"/>
	</g>
	<g class="st7">
		<line class="st8" x1="265.8" y1="60.5" x2="265.8" y2="117.3"/>
		<circle class="st8" cx="281.6" cy="98.4" r="15.3"/>
	</g>
</g>
</svg>
